<?xml version="1.0"?>
<svg version="1.1" xmlns="http://www.w3.org/2000/svg" width="726px" height="144px" viewBox="0 0 726 144">
<path id="Firefox" d="M130.434,59.251l-1.339,8.592c0,0-1.915-15.907-4.261-21.854c-3.597-9.112-5.197-9.039-5.207-9.026c2.408,6.122,1.972,9.41,1.972,9.41s-4.268-11.632-15.553-15.333C93.541,26.94,86.777,28.063,86,28.274c-0.118-0.001-0.232-0.001-0.341-0.001c0.093,0.007,0.182,0.017,0.273,0.024c-0.004,0.002-0.01,0.005-0.009,0.006c0.051,0.062,13.812,2.406,16.253,5.759c0,0-5.846,0-11.663,1.676c-0.263,0.075,21.404,2.707,25.833,24.357c0,0-2.375-4.955-5.312-5.797c1.932,5.877,1.436,17.028-0.404,22.57c-0.237,0.713-0.479-3.081-4.103-4.715c1.161,8.316-0.069,21.51-5.839,25.143c-0.451,0.283,3.617-13.021,0.818-7.879c-16.117,24.711-35.167,11.405-43.733,5.549c4.39,0.954,12.721-0.151,16.41-2.895c0.004-0.004,0.008-0.006,0.013-0.01c4.006-2.738,6.379-4.738,8.508-4.266c2.132,0.477,3.551-1.663,1.896-3.561c-1.658-1.902-5.684-4.516-11.128-3.09c-3.84,1.004-8.598,5.254-15.861,0.951c-5.553-3.29-6.096-6.024-6.148-7.924c0.138-0.681,0.309-1.321,0.517-1.901c0.641-1.79,2.582-2.332,3.665-2.758c1.837,0.315,3.421,0.886,5.082,1.739c0.021-0.552,0.027-1.289-0.003-2.12c0.16-0.315,0.061-1.267-0.193-2.431c-0.147-1.169-0.391-2.375-0.77-3.476c0.009-0.002,0.019-0.002,0.027-0.007c0.024-0.014,0.043-0.038,0.052-0.078c0.08-0.36,0.699-0.952,1.582-1.639c1.744-1.356,4.521-3.086,6.261-4.16c0.812-0.501,1.399-0.861,1.546-0.971c0.065-0.049,0.144-0.107,0.228-0.172c0.142-0.108,0.304-0.243,0.474-0.408c0.004-0.003,0.008-0.007,0.012-0.011c0.523-0.514,1.103-1.344,1.296-2.744c0.008-0.054,0.013-0.11,0.02-0.165c0.01-0.087,0.02-0.173,0.027-0.265c0.009-0.125,0.015-0.256,0.018-0.389c0.001-0.034,0.003-0.066,0.004-0.102c0.002-0.185,0-0.375-0.011-0.576c-0.004-0.067-0.009-0.13-0.016-0.19c0-0.001,0-0.003,0-0.005c-0.005-0.04-0.011-0.079-0.019-0.115c-0.005-0.026-0.011-0.051-0.018-0.075c-0.003-0.011-0.006-0.021-0.01-0.032c-0.012-0.034-0.025-0.068-0.043-0.1v0c-0.019-0.033-0.042-0.064-0.067-0.094c-0.003-0.003-0.006-0.007-0.009-0.01c-0.056-0.062-0.13-0.116-0.229-0.165c-0.002-0.001-0.004-0.002-0.006-0.003c-0.102-0.05-0.23-0.094-0.391-0.132c-0.001,0-0.003-0.001-0.004-0.001c-0.409-0.097-1.029-0.159-1.975-0.197c-0.002,0-0.005,0-0.007,0c-0.188-0.008-0.388-0.014-0.602-0.02c-0.001,0-0.002,0-0.004,0c-0.211-0.005-0.437-0.01-0.676-0.015c-0.005,0-0.01,0-0.015,0l0,0c-1.25-0.021-2.882-0.021-5.025-0.013c-3.764,0.015-5.84-3.688-6.498-5.107c0.909-5.018,3.538-8.59,7.848-11.016c0.081-0.045,0.059-0.082-0.035-0.108c0.872-0.513-10.18-0.021-15.261,6.44c-4.51-1.122-8.441-1.048-11.828-0.252c-0.648-0.019-1.455-0.101-2.41-0.3c-2.25-2.039-5.471-5.805-5.644-10.3c0,0-0.01,0.008-0.025,0.021c-0.002-0.043-0.01-0.083-0.011-0.126c0,0-6.857,5.27-5.831,19.637c-0.003,0.23-0.008,0.45-0.014,0.664c-1.855,2.517-2.777,4.633-2.846,5.101c-1.644,3.348-3.312,8.386-4.67,16.033c0,0,0.953-3.018,2.861-6.432c-1.404,4.293-2.51,10.969-1.862,20.999c0,0,0.171-2.222,0.776-5.42c0.473,6.212,2.543,13.882,7.777,22.901c9.675,16.679,24.359,25.395,40.678,27.213c0.072,0.008,0.144,0.017,0.215,0.025c0.377,0.04,0.756,0.076,1.135,0.109c0.459,0.043,0.919,0.078,1.38,0.109c0.11,0.008,0.22,0.015,0.33,0.021c2.818,0.173,5.668,0.145,8.535-0.098c0.023-0.002,0.045-0.004,0.068-0.006c0.053-0.004,0.105-0.007,0.157-0.012c3.531-0.241,7.087-0.772,10.634-1.629C135.655,117.232,130.434,59.251,130.434,59.251z"/>
<path id="Chrome" d="M207.529,57.415a17.626,17.626,0,0,1,0,35.252a17.626,17.626,0,0,1,0,-35.252M224.881,57.251c4.549,4.597,7.347,10.928,7.314,17.906c-0.026,5.65-1.943,11.13-5.447,15.563l-23.771,40.463c31.197,2.357,58.399-21.02,60.758-52.217c0.557-7.364-0.34-14.737-2.599-21.716H224.881zM213.047,99.238c-7.429,1.746-15.558,0.127-21.899-5.104c-3.66-3.019-6.396-7.006-7.897-11.505L160.49,43.176c-17.421,25.988-10.477,61.177,15.511,78.598c5.795,3.885,12.24,6.646,18.999,8.182L213.047,99.238zM182.166,24.235c-6.314,3.139-11.96,7.421-16.675,12.602l17.728,30.727c2.376-7.656,8.341-14.061,16.566-16.649c2.343-0.736,4.782-1.129,7.237-1.163h51.085C244.183,21.734,210.184,10.311,182.166,24.235z"/>
<path id="Safari" d="M339.664,72.729c0.687-5.157,4.5-9.322,9.473-10.527l4.202-3.444c-0.408-0.032-0.819-0.05-1.236-0.05c-0.06,0-0.117,0.004-0.177,0.005L340.323,38.93l-0.213-0.367l2.246,23.544c-1.107,0.879-2.094,1.903-2.93,3.046l-12.566-3.275l-0.307-0.082l10.382,8.574c-0.34,1.286-0.524,2.635-0.524,4.028c0,0.024,0.002,0.049,0.002,0.073l-20.143,11.813l-0.366,0.213l16.716-1.595L339.664,72.729zM370.674,64.638l-6.03,10.197c-0.199,5.824-4.364,10.64-9.879,11.831l-4.021,3.361c0.222,0.02,0.445,0.035,0.669,0.045l12.427,20.631l-0.135-1.262L361.3,87.107c1.134-0.82,2.153-1.791,3.03-2.88l13.066,3.243l-0.741-0.6l-9.594-7.727c0.419-1.323,0.665-2.721,0.718-4.168l20.266-12.206l-1.264,0.135L370.674,64.638zM381.016,40.849l0.256-0.429l-35.764,29.308l-22.894,39.571l1.155-0.965l34.296-28.675L381.016,40.849z M352.103,78.321c-2.167,0-3.923-1.756-3.923-3.923s1.756-3.923,3.923-3.923c2.167,0,3.923,1.756,3.923,3.923S354.27,78.321,352.103,78.321zM391.997,34.345c-10.771-10.771-25.091-16.703-40.324-16.703c-3.406,0-6.763,0.313-10.048,0.894c0.209-0.768,0.242-1.548,0.062-2.302c-0.612-2.557-3.319-4.21-6.898-4.21c-0.935,0-1.892,0.115-2.842,0.342c-4.675,1.118-7.722,4.567-6.937,7.853c0.289,1.208,1.057,2.205,2.152,2.93c-5.795,2.762-11.139,6.521-15.813,11.195c-10.771,10.771-16.703,25.093-16.703,40.325s5.932,29.553,16.703,40.324s25.092,16.703,40.325,16.703c15.233,0,29.554-5.932,40.324-16.703C402.769,104.223,408.7,89.902,408.7,74.67S402.769,45.116,391.997,34.345z M332.805,15.958c0.669-0.161,1.337-0.241,1.983-0.241c1.934,0,3.147,0.709,3.307,1.377c0.103,0.429-0.176,1.028-0.746,1.604c-0.524,0.53-1.256,0.981-2.083,1.333c-0.516,0.154-1.025,0.327-1.536,0.496c-0.615,0.136-1.229,0.212-1.825,0.212c-1.933,0-3.145-0.709-3.305-1.376C328.38,18.437,329.908,16.65,332.805,15.958z M351.673,122.467c-26.355,0-47.798-21.441-47.798-47.797s21.442-47.798,47.798-47.798c26.356,0,47.797,21.442,47.797,47.798S378.029,122.467,351.673,122.467zM337.061,36.053l-1.249-2.994l-1.894,0.789l1.251,3.002C335.793,36.568,336.423,36.304,337.061,36.053zM346.74,33.566l-0.493-3.188l-2.027,0.313l0.494,3.189C345.384,33.759,346.06,33.654,346.74,33.566zM328.279,40.806l-1.958-2.648l-1.649,1.22l1.965,2.658C327.175,41.611,327.722,41.202,328.279,40.806zM315.36,55.788l-3.07-1.486l-0.895,1.846l3.082,1.493C314.757,57.015,315.052,56.397,315.36,55.788zM357.02,30.271l-2.043-0.18l-0.283,3.21c0.686,0.043,1.367,0.102,2.043,0.178L357.02,30.271zM320.906,47.519l-2.58-2.141l-1.31,1.579l2.589,2.148C320.027,48.565,320.46,48.036,320.906,47.519zM367.563,32.767l-1.939-0.667l-1.046,3.044c0.653,0.208,1.299,0.432,1.938,0.67L367.563,32.767zM395.383,63.613l-0.555-1.975l-3.276,0.92c0.195,0.652,0.376,1.312,0.538,1.979L395.383,63.613zM390.461,51.79l-2.908,1.647c0.348,0.588,0.682,1.185,1,1.791l2.919-1.653L390.461,51.79zM311.97,65.135l-3.406-0.725l-0.427,2.006l3.424,0.728C311.68,66.468,311.816,65.798,311.97,65.135zM393.282,74.398c0,0.003,0,0.006,0,0.009l3.497-0.112l-0.066-2.05l-3.481,0.112C393.265,73.034,393.282,73.714,393.282,74.398zM385.272,44.763l-1.407-1.491l-2.396,2.263c0.479,0.487,0.946,0.987,1.401,1.498L385.272,44.763zM377.146,37.689l-1.725-1.11l-1.76,2.73c0.584,0.359,1.156,0.732,1.72,1.119L377.146,37.689zM388.578,93.523l3.275,1.588l0.894-1.847l-3.262-1.579C389.197,92.307,388.895,92.92,388.578,93.523zM375.583,108.227l2.238,3.029l1.65-1.221l-2.233-3.02C376.697,107.434,376.146,107.836,375.583,108.227zM366.869,112.848l1.462,3.508l1.894-0.791l-1.46-3.5C368.141,112.342,367.509,112.602,366.869,112.848zM357.311,115.25l0.585,3.783l2.027-0.312l-0.585-3.777C358.669,115.062,357.992,115.165,357.311,115.25zM347.124,119.141l2.043,0.18l0.338-3.826c-0.686-0.043-1.367-0.102-2.043-0.179L347.124,119.141zM382.959,101.664l2.859,2.371l1.309-1.578l-2.847-2.363C383.853,100.629,383.412,101.152,382.959,101.664zM392.09,84.26l3.49,0.742l0.426-2.006l-3.476-0.738C392.4,82.932,392.253,83.599,392.09,84.26zM312.254,84.818l-3.494,0.982l0.554,1.973l3.507-0.983C312.616,86.141,312.427,85.483,312.254,84.818zM312.671,95.838l1.012,1.785l3.229-1.828c-0.356-0.584-0.697-1.176-1.024-1.777L312.671,95.838zM336.58,116.646l1.94,0.666l1.243-3.617c-0.655-0.205-1.301-0.426-1.941-0.663L336.58,116.646zM310.931,75.002l-3.566,0.115l0.065,2.049l3.581-0.114C310.967,76.373,310.94,75.69,310.931,75.002zM326.997,111.723l1.724,1.111l2.061-3.199c-0.585-0.354-1.161-0.723-1.727-1.105L326.997,111.723zM321.604,102.068l-2.733,2.582l1.408,1.49l2.742-2.589C322.537,103.068,322.063,102.574,321.604,102.068z"/>
<path id="Opera" d="M493.4,120.757c18.715,0,20.401-28.351,20.401-47.426c0-21.956-3.284-45.908-20.401-45.908c-17.115,0-19.98,25.466-19.98,45.908C473.417,92.232,474.951,120.758,493.4,120.757L493.4,120.757z M493.395,18.208c30.644,0,53.574,22.16,53.574,56.07c0,29.942-21.724,57.121-53.568,57.121c-31.537,0-53.146-27.186-53.146-57.121C440.254,40.637,462.475,18.208,493.395,18.208L493.395,18.208z"/>
<path id="InternetExplorer" d="M622.533,80.645h49.192h30.017c0.236-2.086,0.369-4.202,0.369-6.35c0-8.163-1.748-15.918-4.889-22.912c-0.51-0.894-1.045-1.772-1.602-2.635c0.048-0.128,0.088-0.252,0.136-0.379c-5.127-9.797-13.065-17.888-22.747-23.201c-9.389,3.417-20.503,9.997-31.869,19.05c1.603-0.345,3.264-0.531,4.97-0.531c12.565,0,22.831,9.83,23.537,22.219h-47.075c0.118-2.063,0.506-4.053,1.12-5.94c-12.584,12.771-22.403,26.065-28.46,37.751c8.867,19.23,28.312,32.578,50.878,32.578c24.577,0,45.442-15.84,52.98-37.862h-30.306c-4.158,7.694-12.296,12.923-21.655,12.923c-9.36,0-17.497-5.229-21.655-12.923c-1.877-3.474-2.943-7.45-2.943-11.676v-0.112H622.533zM589.663,124.395c-10.33-10.33,4.488-41.897,33.099-70.508c28.609-28.609,60.178-43.429,70.508-33.099c4.408,4.409,4.223,12.695,0.352,22.96c0.566,0.877,1.11,1.771,1.629,2.681c5.199-13.561,5.141-25.095-1.697-31.932c-6.541-6.541-24.369-5.288-44.322,3.888c-1.033-0.057-2.072-0.09-3.12-0.09c-30.561,0-55.399,24.479-55.986,54.899c-13.165,23.396-15.878,45.77-8.459,53.189c7.989,7.989,22.495,6.616,39.144-1.573c-1.226-0.617-2.426-1.279-3.601-1.98C604.84,128.469,594.711,129.443,589.663,124.395z"/>
</svg>